<?xml version="1.0" encoding="UTF-8" standalone="no"?><!DOCTYPE svg PUBLIC "-//W3C//DTD SVG 1.1//EN" "http://www.w3.org/Graphics/SVG/1.1/DTD/svg11.dtd"><svg width="100%" height="100%" viewBox="0 0 235 222" version="1.1" xmlns="http://www.w3.org/2000/svg" xmlns:xlink="http://www.w3.org/1999/xlink" xml:space="preserve" xmlns:serif="http://www.serif.com/" style="fill-rule:evenodd;clip-rule:evenodd;stroke-linejoin:round;stroke-miterlimit:2;"><g><path d="M234.962,134.764c-0.583,-8.099 -4.378,-17.799 -26.555,-11.542c-11.427,3.249 -21.981,3.394 -26.505,-1.068c-0.534,-0.621 -1.038,-1.268 -1.507,-1.94c-1.703,-3.443 -0.973,-8.681 3.356,-16.004c0.937,-2.036 2.47,-3.741 4.396,-4.892c1.927,-1.151 4.158,-1.695 6.4,-1.559c3.55,0 7.588,0.728 12.5,0.631c15.416,-0.388 21.301,-9.991 20.62,-18.818c0,-2.668 -3.697,-1.843 -10.408,-3.444c-6.712,-1.6 -12.012,-0.776 -13.374,-10.185c-0.811,-2.641 -2.398,-4.978 -4.558,-6.708c-2.16,-1.73 -4.79,-2.772 -7.552,-2.991c-5.398,-0.825 -16.925,-6.305 -25.533,0.582l-7.441,-3.25c-4.864,-1.212 -4.864,2.183 -9.386,3.88c-4.523,1.697 -12.5,-2.473 -10.311,3.055c1.607,3.214 4.317,5.745 7.637,7.134c3.32,1.388 7.031,1.542 10.455,0.432c-5.301,26.675 -30.98,32.689 -52.378,31.865c-13.663,-0.53 -26.557,-6.447 -35.848,-16.45c-9.293,-10.002 -14.223,-23.274 -13.711,-36.9c0.292,-8.196 -2.383,-10.573 -4.863,-6.305c-0.995,1.801 -1.747,3.726 -2.237,5.723c-0.243,0.825 -0.438,1.746 -0.632,2.716c-1.378,9.52 -0.225,19.234 3.343,28.171c3.567,8.936 9.424,16.782 16.986,22.754c-4.469,3.926 -7.625,9.122 -9.046,14.889c-0.978,4.152 -1.094,8.46 -0.341,12.659c0,1.115 0.438,1.745 0.438,1.745c1.848,8.827 -14.59,14.55 -21.739,15.908l-1.557,0c-0.955,0.074 -1.914,0.074 -2.869,0c-1.059,-0.025 -2.115,-0.123 -3.161,-0.291c-4.329,-0.339 -7.49,0.34 -10.262,11.01c-3.891,14.986 -15.223,11.64 -17.946,15.859c-4.28,6.79 2.091,11.882 10.213,12.319c5.315,0.367 10.559,-1.376 14.59,-4.85c14.007,-12.61 7.295,-18.187 21.205,-17.266c1.751,0 3.89,0.34 6.419,0.679c15.417,1.989 26.36,5.19 41.534,-11.155c0.915,-1.267 1.976,-2.423 3.161,-3.443c0.776,-0.656 1.666,-1.166 2.627,-1.504c0.883,-0.166 1.79,-0.166 2.674,0c5.884,1.358 19.113,8.585 34.045,6.16c5.852,-2.114 11.201,-5.417 15.708,-9.7c0,-0 2.383,-2.086 3.89,-0c1.509,2.085 4.038,6.014 6.274,8.39c5.302,5.772 5.399,3.395 16.682,-1.164c1.118,-0.485 2.334,-0.97 3.696,-1.455c29.181,-10.67 28.742,-14.113 34.627,-2.473c1.07,2.134 4.864,2.376 8.414,0.921c2.458,-0.885 4.556,-2.551 5.971,-4.742c1.414,-2.191 2.067,-4.785 1.859,-7.383Z" style="fill:#fba919;fill-rule:nonzero;"/></g></svg>