<svg class="my-auto" width="210" height="45" viewBox="0 0 256 60" xmlns="http://www.w3.org/2000/svg"><path d="M47.7173 59.0221H10.1719C4.586 59.0221 0.0253906 54.4364 0.0253906 48.8199V11.0684C0.0253906 5.45185 4.586 0.866211 10.1719 0.866211H47.7173C53.3032 0.866211 57.8638 5.45185 57.8638 11.0684V48.8199C57.8638 54.4364 53.2678 59.0221 47.7173 59.0221Z" fill="#300D38"></path><path d="M50.44 33.1432C50.3339 31.5436 49.5915 29.624 45.2077 30.8682C42.945 31.5081 40.8945 31.5436 39.9753 30.6549C39.8693 30.5127 39.7632 30.3705 39.6925 30.2283C39.339 29.5529 39.5157 28.4865 40.3642 27.0646C40.9652 26.0337 41.6723 25.7849 42.4854 25.7849C43.1925 25.7849 43.9703 25.9271 44.9602 25.9271C48.0006 25.856 49.1672 23.9364 49.0258 22.1946C48.9905 21.6614 48.2834 21.8391 46.9753 21.5192C45.6673 21.1993 44.6066 21.377 44.3238 19.493C44.2531 18.9598 43.546 17.7867 41.9551 17.5379C40.8945 17.3601 38.6319 16.2937 36.9349 17.6445L35.4501 17.0046C34.4602 16.7558 34.5309 17.4312 33.6117 17.7867C32.7632 18.0711 31.1369 17.289 31.5965 18.391C31.9501 19.2797 33.3996 20.4528 35.1672 19.884C34.1066 25.1806 29.0511 26.3892 24.844 26.2115C19.2228 25.9982 14.8743 21.2348 15.0864 15.6183C15.1572 13.9831 14.6268 13.521 14.0965 14.3741C13.9551 14.623 13.7784 15.014 13.6723 15.5117C13.6369 15.6894 13.5662 15.8671 13.5309 16.0449C13.0713 18.391 13.6369 23.0833 17.5258 26.1404C17.5258 26.1404 16.2178 27.2068 15.7935 29.1975C15.546 30.335 15.6521 31.2592 15.7228 31.7213C15.7582 31.9346 15.7935 32.0768 15.7935 32.0768C16.147 33.8187 12.9299 34.9917 11.5157 35.2406C11.4097 35.2406 11.3036 35.2761 11.1976 35.2761C10.9854 35.2761 10.8087 35.2761 10.6319 35.2761C10.3844 35.2761 10.1723 35.2406 9.99553 35.205C9.14705 35.1339 8.54604 35.2761 7.98038 37.3734C7.20261 40.3594 4.97533 39.684 4.44503 40.5371C3.59654 41.888 4.86927 42.8833 6.46018 42.9899C7.41473 43.0255 8.51068 42.7766 9.32382 42.0301C12.0814 39.5418 10.7733 38.4043 13.4955 38.6176C13.8491 38.6531 14.2733 38.6887 14.7683 38.7598C17.8087 39.1508 19.9652 39.7906 22.9349 36.5558C22.9349 36.5558 23.1824 36.1648 23.5359 35.8804C23.6774 35.7382 23.8541 35.6316 24.0662 35.5605C24.1369 35.4894 24.5258 35.5249 24.5965 35.5249C25.7632 35.8093 28.344 37.2312 31.2784 36.7336C32.445 36.307 33.5056 35.6316 34.3541 34.7784C34.3541 34.7784 34.8137 34.3519 35.1319 34.7429C35.5208 35.1695 35.9097 35.916 36.3693 36.4136C37.4299 37.5511 37.4299 37.089 39.6571 36.1648C39.8693 36.0581 40.1167 35.9871 40.3996 35.8804C46.1976 33.7476 46.0561 33.0722 47.2228 35.3827C47.4349 35.8093 48.1774 35.8449 48.8844 35.5605C49.7329 35.1695 50.5107 34.3519 50.44 33.1432Z" fill="#FBA919"></path><g opacity="0.1"><path d="M32.3733 34.2096C30.8885 37.2667 25.5148 35.3116 25.4087 34.6717C25.4441 34.2096 25.7976 33.1787 25.4441 33.5342C25.1259 33.8897 23.9946 35.2405 23.5703 35.7737C23.7117 35.6315 23.8885 35.5249 24.1006 35.4538C24.1713 35.3827 24.5602 35.4182 24.6309 35.4182C25.7976 35.7026 28.3784 37.1245 31.3127 36.6269C32.4794 36.2003 33.54 35.5249 34.3885 34.6717C34.3885 34.6717 34.8481 34.2452 35.1663 34.6362C35.1663 34.6362 33.9289 32.5744 33.434 31.7213C33.1158 31.2592 33.0804 32.7522 32.3733 34.2096Z" fill="#414042"></path></g><g opacity="0.1"><path d="M39.5511 24.7541C39.0561 23.7943 36.6521 24.4697 37.748 25.2873C40.6117 27.3846 37.7834 27.4557 39.6925 30.2639C39.339 29.5885 39.5157 28.5221 40.3642 27.1002C40.9652 26.0693 41.6723 25.8205 42.4854 25.8205C42.4854 25.7849 40.046 25.7138 39.5511 24.7541Z" fill="#414042"></path></g><path d="M193.197 4.63477C196.096 4.63477 198.96 4.63477 201.859 4.63477C201.859 10.9978 201.859 17.3252 201.859 23.7949C202.354 23.1195 202.707 22.5152 203.167 21.982C204.899 19.9558 207.162 18.8182 209.778 18.3561C212.748 17.8229 215.682 18.0007 218.475 19.1737C222.01 20.6312 224.167 23.3683 225.298 26.9586C225.97 29.0204 226.147 31.1888 226.182 33.3217C226.182 37.3385 226.182 41.3554 226.217 45.3723C226.217 45.941 226.324 46.5454 226.465 47.1141C226.712 48.0384 227.313 48.5005 228.268 48.536C228.798 48.5716 229.329 48.536 229.93 48.536C229.93 48.6782 229.965 48.8204 229.965 48.9981C229.965 51.0954 229.965 53.2283 229.965 55.3256C229.965 55.5389 229.824 55.8944 229.682 55.8944C226.783 56.4631 223.919 56.6409 221.233 55.1479C219.111 53.9748 218.157 51.9486 217.768 49.638C217.591 48.6427 217.52 47.6118 217.52 46.5809C217.485 42.4929 217.52 38.405 217.52 34.317C217.52 32.824 217.308 31.3665 216.707 29.9802C215.505 27.243 212.783 25.6789 209.672 25.9278C205.217 26.2832 202.106 29.447 202.036 33.9615C201.965 40.9644 202 48.0028 202 55.0057C202 55.2901 202 55.5389 202 55.8588C199.101 55.8588 196.238 55.8588 193.339 55.8588C193.197 38.8315 193.197 21.7687 193.197 4.63477Z" fill="#300D38"></path><path d="M128.677 31.9711C127.263 25.8214 123.728 21.378 117.824 19.0318C114.076 17.5744 110.187 17.4322 106.298 18.2853C100.253 19.6006 95.7984 23.0131 93.3237 28.7719C91.2732 33.4997 91.0964 38.4408 92.3338 43.3819C93.3944 47.6832 95.7277 51.2024 99.5106 53.5841C105.662 57.4588 112.273 57.7787 119.026 55.5036C122.031 54.5083 124.506 52.5532 126.733 50.207C124.965 48.4652 123.233 46.7589 121.536 45.1593C120.404 46.0124 119.379 46.9722 118.177 47.6476C114.889 49.6027 111.319 49.7449 107.677 48.8207C104.849 48.1097 102.692 46.4746 101.384 43.8085C100.748 42.5288 100.394 41.1424 100.359 39.5783C109.975 39.5783 119.521 39.5783 129.031 39.5783C129.314 37.1611 129.278 34.6017 128.677 31.9711ZM120.192 33.393C113.617 33.393 107.112 33.393 100.571 33.393C100.571 32.1844 100.995 31.118 101.596 30.1582C103.364 27.3855 105.98 25.9636 109.127 25.4659C111.849 25.0394 114.394 25.537 116.657 27.1011C118.708 28.523 119.98 30.4426 120.157 33.002C120.192 33.1087 120.192 33.2153 120.192 33.393Z" fill="#300D38"></path><path d="M188.954 24.0437C188.777 24.2214 188.671 24.3636 188.53 24.5058C186.868 26.2476 185.206 27.9539 183.545 29.6957C178.277 23.9726 169.545 24.7902 165.479 29.5535C161.767 33.9259 161.944 41.3909 166.009 45.6211C170.11 49.9223 178.383 50.42 183.509 44.9101C185.312 46.7941 187.115 48.6781 188.918 50.5622C186.055 53.6548 182.661 55.7521 178.56 56.5342C172.408 57.7072 166.681 56.6763 161.59 52.8372C157.171 49.4957 154.696 44.9812 154.131 39.4358C153.565 33.9259 154.944 28.9848 158.479 24.7191C161.449 21.1288 165.302 18.9248 169.828 18.0361C174.6 17.1119 179.232 17.574 183.58 19.8846C185.631 20.951 187.363 22.3729 188.954 24.0437Z" fill="#300D38"></path><path d="M151.127 48.7134C151.127 51.3083 151.127 53.9033 151.127 56.6049C150.349 56.7116 149.571 56.8538 148.758 56.9249C146.319 57.1026 143.879 57.067 141.546 56.3205C137.94 55.1475 135.925 52.517 135.183 48.8911C134.864 47.2915 134.723 45.6563 134.723 44.0211C134.652 38.5823 134.688 33.1435 134.688 27.7047C134.688 27.4559 134.688 27.2071 134.688 26.8872C133.132 26.8872 131.647 26.8872 130.127 26.8872C130.127 24.1855 130.127 21.555 130.127 18.8534C131.647 18.8534 133.132 18.8534 134.688 18.8534C134.688 14.09 134.688 9.39775 134.688 4.66992C137.657 4.66992 140.521 4.66992 143.491 4.66992C143.491 9.3622 143.491 14.0545 143.491 18.8179C146.248 18.8179 148.9 18.8179 151.622 18.8179C151.622 21.5195 151.622 24.15 151.622 26.8516C148.935 26.8516 146.284 26.8516 143.561 26.8516C143.561 27.1004 143.526 27.2426 143.526 27.4204C143.526 33.0013 143.526 38.5468 143.561 44.1277C143.561 44.7676 143.667 45.4074 143.809 46.0473C144.233 47.8602 145.506 48.8911 147.379 48.9622C148.016 48.9977 148.617 48.9977 149.253 48.9622C149.854 48.8911 150.455 48.7845 151.127 48.7134Z" fill="#300D38"></path><path d="M75.7523 45.3367C75.7523 45.9054 75.6462 46.5097 75.5048 47.0785C75.2573 48.0027 74.6563 48.4648 73.7018 48.5004C73.1715 48.5359 72.6412 48.5004 72.0402 48.5004C72.0402 48.6426 72.0048 48.7848 72.0048 48.9625C72.0048 51.0598 72.0048 53.1927 72.0048 55.29C72.0048 55.5033 72.1462 55.8587 72.2876 55.8587C75.1866 56.4275 78.0503 56.6052 80.7371 55.1122C82.8584 53.9392 83.8129 51.913 84.2018 49.6024C84.3785 48.607 84.4846 46.4742 84.4846 46.4742C84.4846 36.7697 84.4846 36.5564 84.4846 26.8519C86.8179 26.8519 89.1159 26.8519 91.3786 26.8519C91.3786 24.1503 91.3786 21.5198 91.3786 18.8182C90.1765 18.8182 85.6159 18.8182 84.4846 18.8182C84.4846 17.6451 84.4139 16.5431 84.4846 15.4767C84.7321 12.3841 86.0755 11.1399 89.1513 11.1399C90.3179 11.1399 91.4493 11.2465 92.6513 11.3176C92.6513 8.86485 92.6513 6.41207 92.6513 3.92374C92.5452 3.88819 92.4745 3.88819 92.4038 3.85264C89.823 3.49717 87.2422 3.46162 84.6967 3.88819C80.8785 4.52805 78.0856 6.58981 76.6361 10.2868C75.8937 12.1708 75.7169 14.1259 75.7169 16.1521C75.7169 17.0408 75.7169 17.8939 75.7169 18.8537C73.6664 18.8537 71.722 18.8537 69.7422 18.8537C69.7422 21.5553 69.7422 24.1859 69.7422 26.8875C71.7573 26.8875 73.7018 26.8875 75.7523 26.8875C75.7523 36.592 75.7523 45.3367 75.7523 45.3367Z" fill="#300D38"></path><path d="M233.748 22.3012C233.748 23.6165 232.687 24.6829 231.343 24.6829C230 24.6829 228.939 23.652 228.939 22.3012C228.939 20.9504 230 19.9551 231.379 19.9551C232.687 19.9551 233.748 20.986 233.748 22.3012ZM229.54 22.3012C229.54 23.3321 230.318 24.1852 231.379 24.1852C232.404 24.1852 233.147 23.3676 233.147 22.3368C233.147 21.3059 232.369 20.4527 231.343 20.4527C230.318 20.4172 229.54 21.2703 229.54 22.3012ZM230.955 23.5454H230.424V21.1992C230.636 21.1637 230.955 21.1281 231.308 21.1281C231.768 21.1281 231.945 21.1992 232.121 21.3059C232.263 21.4125 232.369 21.5903 232.369 21.8036C232.369 22.0879 232.157 22.2657 231.874 22.3723V22.4079C232.086 22.479 232.227 22.6567 232.298 22.9766C232.369 23.3321 232.439 23.4743 232.475 23.5454H231.909C231.838 23.4743 231.803 23.261 231.732 22.9766C231.697 22.7278 231.556 22.6211 231.237 22.6211H230.99V23.5454H230.955ZM230.99 22.1946H231.237C231.52 22.1946 231.768 22.0879 231.768 21.8391C231.768 21.6258 231.626 21.4836 231.273 21.4836C231.131 21.4836 231.025 21.4836 230.99 21.5192V22.1946Z" fill="#300D38"></path></svg>